<?xml version="1.0" encoding="UTF-8"?>
<svg xmlns="http://www.w3.org/2000/svg" xmlns:xlink="http://www.w3.org/1999/xlink" width="500pt" height="500pt" viewBox="0 0 500 500" version="1.1">
<g id="surface1">
<path style=" stroke:none;fill-rule:nonzero;fill:#C9CCD1;fill-opacity:1;" d="M 398.4375 10 C 395.820313 10.429688 393.4375 12.148438 391.875 14.375 C 371.445313 43.28125 332.148438 52.421875 286.875 63.125 C 225 77.773438 148.007813 96.015625 96.5625 175.625 C 59.726563 232.304688 71.132813 279.53125 87.1875 309.0625 C 108.828125 348.945313 151.484375 378.671875 184.6875 387.5 C 136.09375 428.789063 86.171875 452.65625 45.625 441.25 C 40.273438 439.765625 34.921875 443.125 33.4375 448.4375 C 31.953125 453.75 35 459.140625 40.3125 460.625 C 48.867188 463.007813 57.578125 464.0625 66.5625 464.0625 C 109.726563 464.0625 156.953125 437.773438 201.5625 398.75 C 200.507813 395.742188 199.804688 392.8125 199.0625 390 C 194.726563 389.6875 189.84375 388.75 185 387.5 C 255.3125 327.734375 322.539063 231.796875 353.75 153.4375 C 355.78125 148.320313 361.445313 145.78125 366.5625 147.8125 C 371.679688 149.84375 374.21875 155.507813 372.1875 160.625 C 343.359375 232.96875 276.09375 333.554688 201.5625 398.75 C 211.367188 426.796875 236.601563 460 300.9375 460 C 332.890625 460 383.164063 440.507813 419.6875 385.625 C 452.695313 336.015625 495.507813 222.1875 409.375 16.25 C 407.96875 12.890625 404.84375 10.390625 401.25 10 C 400.3125 9.882813 399.296875 9.84375 398.4375 10 Z "/>
</g>
</svg>
