<?xml version="1.0" encoding="UTF-8"?>
<svg xmlns="http://www.w3.org/2000/svg" xmlns:xlink="http://www.w3.org/1999/xlink" width="100pt" height="100pt" viewBox="0 0 100 100" version="1.1">
<g id="surface1">
<path style=" stroke:none;fill-rule:nonzero;fill:#636363;fill-opacity:1;" d="M 92.875 0.0625 C 91.078125 0.078125 89.390625 0.796875 88.4375 2.25 L 73.25 30.8125 C 74.375 31.203125 76.90625 32.328125 85.3125 36.125 L 85.4375 36.1875 C 86.890625 36.84375 88 37.3125 88.4375 37.5 C 88.585938 37.570313 88.726563 37.679688 88.875 37.75 L 99.9375 7.125 C 100.632813 4.703125 98.898438 1.914063 96.125 0.8125 C 95.09375 0.296875 93.953125 0.0546875 92.875 0.0625 Z M 8 16 C 3.585938 16 0 19.585938 0 24 C 0 28.414063 3.585938 32 8 32 C 12.414063 32 16 28.414063 16 24 C 16 19.585938 12.414063 16 8 16 Z M 26 22 C 23.789063 22 22 23.789063 22 26 C 22 28.210938 23.789063 30 26 30 C 28.210938 30 30 28.210938 30 26 C 30 23.789063 28.210938 22 26 22 Z M 64.3125 33.25 C 60.445313 33.539063 57.078125 35.460938 54.6875 38.8125 C 56.195313 41.351563 58.835938 44.453125 62.5625 44.375 C 63.546875 44.335938 64.375 45.046875 64.5625 46 C 65.320313 47.179688 69.976563 49.273438 71.3125 48.75 C 71.875 48.53125 72.476563 48.578125 73 48.875 C 73.523438 49.171875 73.898438 49.65625 74 50.25 C 74.078125 50.578125 74.953125 51.726563 76.75 52.5625 C 78.164063 53.21875 79.539063 53.382813 80.3125 53 C 80.8125 52.75 81.359375 52.742188 81.875 52.9375 C 82.398438 53.132813 82.851563 53.546875 83.0625 54.0625 C 84.414063 57.359375 90.585938 57.601563 94.8125 57.25 C 95.429688 54.570313 95.265625 51.78125 94.3125 49.1875 C 92.992188 45.617188 90.375 42.796875 86.8125 41.1875 C 86.4375 41.023438 85.226563 40.445313 83.6875 39.75 C 76.5625 36.53125 72.539063 34.78125 71.75 34.5625 C 69.140625 33.53125 66.632813 33.078125 64.3125 33.25 Z M 23 36 C 16.9375 36 12 40.9375 12 47 C 12 53.0625 16.9375 58 23 58 C 29.0625 58 34 53.0625 34 47 C 34 40.9375 29.0625 36 23 36 Z M 52.5625 42.8125 C 51.9375 44.296875 51.226563 45.6875 50.5 47 C 51.359375 49.09375 53.898438 53.945313 58.5625 52.875 C 59.101563 52.75 59.671875 52.820313 60.125 53.125 C 60.585938 53.429688 60.84375 53.898438 60.9375 54.4375 C 61.070313 55.1875 61.953125 56.078125 63.1875 56.75 C 64.9375 57.695313 66.828125 57.90625 67.625 57.5625 C 68.148438 57.335938 68.734375 57.320313 69.25 57.5625 C 69.765625 57.804688 70.15625 58.265625 70.3125 58.8125 C 70.59375 59.765625 71.578125 60.742188 72.9375 61.4375 C 74.539063 62.25 76.367188 62.546875 77.5625 62.125 C 78.484375 61.804688 79.46875 62.195313 79.9375 63.0625 C 81.703125 66.335938 87.5 66.6875 92 66.375 C 92.570313 64.75 93.101563 63.078125 93.625 61.3125 C 93.085938 61.34375 92.523438 61.375 91.9375 61.375 C 87.75 61.375 82.742188 60.546875 80.25 57.125 C 78.5625 57.351563 76.625 56.984375 74.6875 56 C 73.28125 55.28125 71.734375 54.179688 70.8125 52.8125 C 68.265625 52.8125 65.335938 51.398438 63.875 50.5 C 62.742188 49.804688 61.859375 49.117188 61.3125 48.375 C 57.34375 48.007813 54.507813 45.421875 52.5625 42.8125 Z M 48 50.9375 C 35.601563 68.164063 14.429688 67.65625 14.1875 67.625 C 13.398438 67.554688 12.625 67.976563 12.25 68.6875 C 11.875 69.398438 11.929688 70.25 12.4375 70.875 C 16.007813 75.28125 19.84375 79.007813 23.75 82.1875 C 25.59375 82.554688 37.195313 84.195313 48.6875 70.875 C 49.40625 70.039063 50.664063 69.96875 51.5 70.6875 C 52.335938 71.40625 52.40625 72.664063 51.6875 73.5 C 43.671875 82.789063 35.21875 85.695313 29.3125 86.3125 C 34.25 89.640625 39.226563 92.15625 43.875 94.0625 C 46.828125 93.445313 56.734375 90.484375 65.5 77.125 C 66.109375 76.203125 67.390625 75.890625 68.3125 76.5 C 69.234375 77.109375 69.484375 78.390625 68.875 79.3125 C 62.265625 89.382813 55.03125 94.109375 49.9375 96.3125 C 60.335938 99.679688 68.09375 99.976563 68.75 100 L 68.8125 100 C 69.1875 100 69.554688 99.890625 69.875 99.6875 C 70.4375 99.335938 82.015625 91.773438 90.5 70.5 C 90.171875 70.507813 89.835938 70.5625 89.5 70.5625 C 85.125 70.5625 80.070313 69.679688 77.3125 66.25 C 75.375 66.484375 73.15625 66.039063 71.125 65 C 69.46875 64.148438 68.15625 63.007813 67.3125 61.6875 C 65.1875 61.867188 62.890625 61.101563 61.3125 60.25 C 59.6875 59.367188 58.414063 58.257813 57.6875 57 C 53.085938 57.242188 49.890625 54.109375 48 50.9375 Z "/>
</g>
</svg>
